<svg xmlns="http://www.w3.org/2000/svg" version="1.1" xmlns:xlink="http://www.w3.org/1999/xlink" width="1000" height="1000"><g clip-path="url(#SvgjsClipPath1277)"><rect width="1000" height="1000" fill="#ffffff"></rect><g transform="matrix(50,0,0,50,100,100)"><svg xmlns="http://www.w3.org/2000/svg" version="1.1" xmlns:xlink="http://www.w3.org/1999/xlink" width="16px" height="16.00px"><svg class="icon" width="16px" height="16.00px" viewBox="0 0 1024 1024" version="1.1" xmlns="http://www.w3.org/2000/svg"><path d="M512 22C241.38 22 22 241.38 22 512s219.38 490 490 490 490-219.38 490-490S782.62 22 512 22z m259.66 369.85L481.12 682.38c-13.87 13.87-36.36 13.87-50.23 0L252.34 503.83c-13.87-13.87-13.87-36.36 0-50.23 13.87-13.87 36.36-13.87 50.23 0l153.44 153.44 265.42-265.42c13.87-13.87 36.36-13.87 50.23 0 13.87 13.87 13.87 36.36 0 50.23z" fill="#2c2c2c"></path></svg></svg></g></g><defs><clipPath id="SvgjsClipPath1277"><rect width="1000" height="1000" x="0" y="0" rx="150" ry="150"></rect></clipPath></defs></svg>